<svg width="539" height="539" viewBox="0 0 539 539" fill="none" xmlns="http://www.w3.org/2000/svg">
<path fill-rule="evenodd" clip-rule="evenodd" d="M473 334.76C451.979 322.608 445.34 309.352 414.362 277.317L406.617 268.479L411.043 262.956L418.787 254.118C432.064 239.757 444.234 213.245 444.234 201.094C444.234 191.151 438.702 180.105 433.17 180.105L430.957 179H427.638L415.468 195.57C398.872 217.664 376.745 244.176 374.532 244.176C373.426 244.176 371.213 230.92 371.213 222.083C371.213 206.617 369 187.837 366.787 187.837L365.681 188.942H356.83H355.723L354.617 190.047L352.404 191.151C351.298 190.047 350.191 191.151 349.085 192.256L342.447 195.57C334.738 197.769 334.702 198.874 333.611 232.656L333.596 233.129C333.944 255.982 333.205 278.837 331.383 301.62L333.596 324.818V336.969L331.383 332.551L328.064 323.713L312.574 293.887C295.943 269.519 284.288 242.116 278.277 213.245L274.957 207.722L271.638 201.094C269.426 197.78 269.426 197.78 267.213 198.884L260.574 204.408L253.936 212.14L249.511 217.664L245.085 228.711L236.234 258.537C217.426 315.98 213 332.551 213 342.493C213 350.225 215.213 352.435 219.638 351.33C222.957 351.33 227.383 352.435 228.489 354.644H229.596L231.809 353.54C232.915 354.644 234.021 353.54 236.234 352.435C238.447 350.225 238.447 350.225 239.553 352.435L241.766 353.54L247.298 338.074C247.298 335.865 248.404 335.865 262.787 335.865C272.48 336.023 282.151 334.909 291.553 332.551L296 340L310.362 359.063C311.468 359.063 312.574 359.063 313.681 356.854H315.894C318.106 359.063 319.213 357.958 318.106 356.854C318.106 354.644 318.106 354.644 321.426 355.749C323.638 356.854 324.745 355.749 325.851 353.54C325.851 350.226 326.957 345.807 328.064 346.911L329.17 345.807L331.383 344.702L333.596 342.493C334.702 340.283 334.702 340.283 334.702 342.493C334.702 346.911 336.915 352.435 340.234 355.749C342.447 357.958 343.553 357.958 345.766 355.749H361.255L365.681 357.958C369 357.958 372.319 344.702 374.532 322.608L377.851 298.306C378.957 298.306 396.66 315.98 411.043 332.551C428.745 351.33 439.809 363.482 444.234 365.691C448.66 367.9 453.085 369.005 451.979 366.796C451.979 364.586 455.298 360.72 457.511 360.72L459.723 354.644L473 334.76ZM276.064 303.829L271.638 291.677L265 277.317L262.787 274.003L261.681 276.212L250.617 307.143C259.047 305.672 267.538 304.566 276.064 303.829ZM275.523 297.651C272.537 288.194 264.955 272.529 262.553 267.724L263.447 267.276C265.845 272.071 273.463 287.806 276.477 297.349L275.523 297.651ZM278.04 303.697L276.54 300.197L277.46 299.803L278.96 303.303L278.04 303.697ZM311.125 357.831C303.605 349.308 295.572 337.266 293.045 331.707L293.955 331.293C296.428 336.734 304.395 348.692 311.875 357.169C312.058 357.376 312.038 357.692 311.831 357.875C311.624 358.058 311.308 358.038 311.125 357.831Z" fill="black"/>
<path d="M176 429L185 450C187 458 187 469 186 476C185 483 185 483 181 485C176 486 174 486 174 483C174 481 173 481 170 482C167 483 168 486 170 489C173 491 178 492 184 490C192 487 198 478 199 469C199 462 196 445 194 442C194 442 194 442 178 404C180 397 186 391 192 392C198 394 196 398 189 401C185 403 184 404 186 406C190 409 202 401 202 396C202 392 197 388 193 387L185 388C160.054 396.315 166.962 403.176 176 429Z" fill="black"/>
<path fill-rule="evenodd" clip-rule="evenodd" d="M260 372C255 380 252 397 254 403C257 409 263 409 265 403L268 400L272 396L274 394L275 399C275 405 278 407 281 405L283 404L280 410C276 419 276 426 281 425C285 424 287 420 288 411V402L294 396L299.5 388.5C299.5 388.5 298.5 385 296 389.5C293.5 394 291.5 397 288 400V393V387C284.745 387 284.88 389.331 285.096 393.028C285.211 395.009 285.349 397.383 285 400C284.5 402 280 403 280 403L279 398C279 388 278 387 271 393C269.927 394.073 269.07 395.073 268.391 395.867C266.536 398.034 266 398.659 266 395C265.227 391.91 261.5 394 263 397.5C263.915 400.246 263.155 401.736 262.252 403.502L262.252 403.503C262.169 403.666 262.084 403.831 262 404C260 406 259 405 258 399C258 395 258 394 261 390C265 385 268 376 267 372C266 369 262 369 260 372ZM210 440L206 451C204 458 204 460 205 465C206 473 210 479 213 480C214 480 216 480 218 478C222 476 229 469 229 467L234 460C237.728 455.719 241.395 451.385 245 447L246 459V473L250 475C250.762 475 251.33 475 251.82 474.804C253.258 474.226 254.016 471.953 257 463L257 463L261 454L263 452V454L265 463C267 477 275 481 276 468L278 461C278.356 459.931 278.586 459.242 278.779 459.252C279.127 459.271 279.356 461.565 280 468C281 479 283 489 285 492C287 494 294 495 297 494L302 487L305 480L308 482H313C317 480 320 475 321 469C321.049 468.754 321.096 468.519 321.141 468.292L321.142 468.287C322.01 463.901 322.198 462.951 326 462C328.899 460.551 331.273 458.05 334.644 454.5L334.645 454.499C335.925 453.151 337.349 451.651 339 450C339.329 449.343 339.549 448.902 339.697 448.925C340 448.972 340 450.958 340 457C339 467 340 469 344 469L348 466C349 462 358 452 359 452L358 462V488C359 491 360 491 365 491C369 491 370 491 374 488C379 483 382 477 380 474C379.642 473.642 379.412 473.412 379.173 473.402C378.744 473.384 378.285 474.073 377 476L369 486C367 486 366 480 366 462C367 448 366 446 365 444C362 442 357 444 352 450L348 454L347 448C347 436 342 436 333 448L324 457C322.141 457.929 322.01 457.131 321.198 452.198C321.136 451.823 321.071 451.424 321 451C319 444 314 440 310 443L306 445C304 446 301 450 300 457C298 463 298 467 300 472L301 477L295 489C292 489 290 481 289 466L288.941 465C287.999 448.96 287.94 447.96 285 446C282 444 281 446 278 452L274 459L272 455C270 448 268 445 266 445C263 445 258 449 255 454L253 457V453L251 445C247 437 244 437 239 445C231.167 454.475 223.165 463.81 215 473V457C215.116 455.778 215.226 454.635 215.329 453.564L215.329 453.557C216.54 440.917 216.78 438.408 215.726 437.611C215.465 437.414 215.125 437.321 214.7 437.206C214.488 437.148 214.255 437.085 214 437C211 437 211 437 210 440ZM259 389.5C262.5 387 268 374.5 265 372.5C263.5 371.5 259.238 387.062 259 389.5ZM285.5 404.5C282.5 406 276.5 421 280 421C283 421 286 408.5 285.5 404.5ZM312.5 449C315.7 449 316.833 454.667 317 457.5C313.8 457.5 310.333 455.167 309 454C308.833 452.333 309.3 449 312.5 449ZM317 463.5C313 463.5 308.5 459 308.5 459C306.409 478.24 316 482 317 463.5Z" fill="black"/>
<circle cx="269.5" cy="269.5" r="252" stroke="black" stroke-width="5"/>
<path d="M73.71 244.686C66.9041 241.919 61.2324 238.012 56.6951 232.965C52.3198 227.919 48.7548 221.977 46 215.14C47.6205 210.744 50.2132 207.081 53.7783 204.151C57.3433 201.058 61.3134 198.453 65.6887 196.337C70.226 194.221 75.0064 192.512 80.0299 191.209C85.0533 189.907 89.9147 188.767 94.6141 187.791C95.5864 188.116 96.0725 188.116 96.0725 187.791C96.0725 187.465 96.4776 187.628 97.2878 188.279C103.122 186.488 109.846 184.779 117.463 183.151C125.079 181.36 133.181 180.709 141.77 181.198C142.904 180.547 144.281 180.221 145.902 180.221C147.522 180.058 149.224 179.977 151.006 179.977C152.789 179.977 154.49 179.977 156.111 179.977C157.731 179.814 159.109 179.488 160.243 179C161.215 180.14 162.674 180.872 164.618 181.198C166.563 181.36 168.588 182.174 170.695 183.64C171.343 183.802 171.343 183.558 170.695 182.907C170.047 182.093 170.128 181.523 170.938 181.198C173.045 181.198 174.908 181.686 176.529 182.663C178.149 183.64 179.608 184.779 180.904 186.081C182.362 187.221 183.659 188.279 184.793 189.256C186.09 190.233 187.467 190.721 188.925 190.721C190.384 192.512 192.085 194.221 194.03 195.849C196.136 197.314 198.081 198.86 199.864 200.488C201.808 202.116 203.348 203.907 204.482 205.86C205.778 207.814 206.426 210.012 206.426 212.453C206.264 213.43 206.588 214 207.399 214.163C208.209 214.326 208.776 214.814 209.1 215.628C209.262 221.651 208.29 226.86 206.183 231.256C204.239 235.651 201.727 239.721 198.648 243.465C195.569 247.047 192.247 250.465 188.682 253.721C185.279 256.977 182.119 260.477 179.203 264.221C181.147 266.663 183.335 268.942 185.765 271.058C188.358 273.012 190.951 274.965 193.544 276.919C196.136 278.872 198.567 280.988 200.836 283.267C203.267 285.384 205.292 287.826 206.913 290.593C207.399 291.57 208.452 292.221 210.072 292.547C210.559 294.5 211.207 296.535 212.017 298.651C212.989 300.605 213.881 302.558 214.691 304.512C215.501 306.302 215.987 307.93 216.149 309.395C216.311 310.86 215.906 312.081 214.934 313.058C216.068 313.709 216.716 314.767 216.878 316.233C217.041 317.535 217.041 318.593 216.878 319.407C213.313 323.802 210.883 326.895 209.586 328.686C208.29 330.477 207.318 331.779 206.67 332.593C206.021 333.407 205.373 334.14 204.725 334.791C204.077 335.442 202.618 336.744 200.35 338.698C191.761 343.907 182.768 348.628 173.369 352.86C164.132 356.93 154.49 359.698 144.443 361.163C143.633 362.302 142.418 363.198 140.797 363.849C139.339 364.663 137.638 365.314 135.693 365.802C133.748 366.291 131.642 366.698 129.373 367.023C127.267 367.349 125.322 367.674 123.539 368C122.729 367.674 122.243 367.105 122.081 366.291C122.081 365.64 121.676 365.151 120.866 364.826C120.704 366.779 119.812 367.756 118.192 367.756C116.733 367.919 114.87 367.593 112.601 366.779C110.333 365.965 107.983 364.826 105.552 363.36C103.122 361.895 101.015 360.512 99.2324 359.209C98.4222 360.674 97.3689 362.221 96.0725 363.849C94.9382 365.477 93.7228 366.616 92.4264 367.267C90.1578 366.942 88.4563 366.698 87.322 366.535C86.3497 366.372 85.3774 366.779 84.4051 367.756C83.1087 367.105 82.1365 366.372 81.4883 365.558C80.8401 364.907 80.1919 364.174 79.5437 363.36C78.8955 362.709 78.1663 362.14 77.3561 361.651C76.5458 361 75.3305 360.43 73.71 359.942C74.0341 359.128 73.791 357.907 72.9808 356.279C72.1706 354.488 71.0362 353.43 69.5778 353.105C70.3881 351.802 70.064 350.174 68.6055 348.221C67.1471 346.105 66.0128 343.744 65.2026 341.14C65.3646 340 65.4456 338.86 65.4456 337.721C65.6077 336.419 65.7697 335.279 65.9318 334.302C66.2559 333.163 66.661 332.186 67.1471 331.372C67.6333 330.558 68.4435 329.988 69.5778 329.663C69.4158 327.547 68.7676 325.512 67.6333 323.558C69.0917 322.419 70.064 321.035 70.5501 319.407C71.0362 317.616 71.4414 315.826 71.7655 314.035C72.2516 312.244 72.8188 310.535 73.467 308.907C74.1151 307.116 75.1684 305.651 76.6269 304.512C76.3028 304.023 75.9787 303.616 75.6546 303.291C75.3305 302.965 75.1684 302.395 75.1684 301.581C77.5991 297.512 79.3006 294.093 80.2729 291.326C81.2452 288.395 81.9744 285.628 82.4606 283.023C83.1087 280.256 83.7569 277.326 84.4051 274.233C85.0533 271.14 86.3497 267.233 88.2942 262.512C88.1322 259.581 88.4563 256.977 89.2665 254.698C90.0768 252.419 90.887 250.221 91.6972 248.105C92.6695 245.826 93.3987 243.465 93.8849 241.023C94.371 238.581 94.29 235.733 93.6418 232.477C90.887 232.802 88.8614 233.779 87.565 235.407C86.4307 237.035 85.7015 239.233 85.3774 242C83.919 243.302 82.0554 243.953 79.7868 243.953C77.5181 243.791 75.4925 244.035 73.71 244.686ZM180.661 291.814C174.503 288.395 168.832 286.36 163.646 285.709C158.623 285.058 153.761 285.14 149.062 285.953C144.525 286.605 140.149 287.581 135.936 288.884C131.723 290.186 127.51 291.163 123.296 291.814C121.19 297.349 119.002 303.453 116.733 310.128C114.465 316.802 112.277 323.314 110.171 329.663C116.004 328.849 121.352 327.628 126.213 326C131.075 324.372 135.774 322.581 140.311 320.628C144.849 318.512 149.305 316.477 153.68 314.523C158.055 312.407 162.593 310.453 167.292 308.663C167.778 306.709 168.832 305.163 170.452 304.023C172.072 302.884 173.693 301.826 175.313 300.849C176.934 299.709 178.311 298.488 179.446 297.186C180.58 295.884 180.985 294.093 180.661 291.814ZM163.646 215.384C153.599 215.058 143.714 215.953 133.991 218.07C124.269 220.186 116.085 223.279 109.441 227.349C112.682 230.116 116.004 232.558 119.407 234.674C122.972 236.791 125.646 239.64 127.429 243.221C135.207 240.128 142.013 236.221 147.846 231.5C153.68 226.616 158.947 221.244 163.646 215.384Z" fill="black"/>
<path d="M221 409.5C220.474 406.342 217 407.5 214.5 409.5C213.875 410.5 213.869 418.151 215 419C217 420.5 220.5 419 221 418.5C222 417.5 221.5 412.5 221 409.5Z" fill="black"/>
<path fill-rule="evenodd" clip-rule="evenodd" d="M136.491 171C166.646 130.347 214.996 104 269.5 104C324.004 104 372.354 130.347 402.509 171H404.992C374.537 129.181 325.193 102 269.5 102C213.807 102 164.463 129.181 134.008 171H136.491ZM137.998 370H135.488C166.047 410.684 214.7 437 269.5 437C324.3 437 372.953 410.684 403.512 370H401.002C370.757 409.515 323.105 435 269.5 435C215.895 435 168.243 409.515 137.998 370Z" fill="black"/>
<path d="M122.95 102.209L125.908 105.552L118.933 111.722L138.967 134.373L135.48 137.458L115.445 114.806L108.65 120.817L105.692 117.473L122.95 102.209Z" fill="black"/>
<path d="M173.047 108.12L159.416 101.409C159.214 101.57 158.894 101.783 158.457 102.049L154.069 104.717L160.702 115.627L156.724 118.046L138.694 88.393L146.609 83.58C148.633 82.3497 150.653 81.6079 152.671 81.3545C154.69 81.1012 156.574 81.3974 158.324 82.2432C160.057 83.0617 161.514 84.4416 162.695 86.3829C163.809 88.2148 164.421 90.1458 164.532 92.1757C164.67 94.189 164.146 96.0992 162.96 97.9062L177.682 105.302L173.047 108.12ZM156.031 98.2434C158.164 96.9467 159.354 95.4551 159.602 93.7688C159.877 92.0659 159.574 90.4899 158.693 89.0407C158.161 88.1658 157.432 87.4292 156.507 86.831C155.609 86.2161 154.556 85.9013 153.348 85.8864C152.152 85.8276 150.897 86.1972 149.585 86.9952L144.991 89.7883L151.724 100.862L156.031 98.2434Z" fill="black"/>
<path d="M204.528 83.3371L192.008 87.9528L191.695 97.7883L187.371 99.3822L189.101 60.2227L189.371 60.1231L216.105 88.7894L211.061 90.6489L204.528 83.3371ZM201.647 80.1019L192.625 69.9223L192.19 83.5886L201.647 80.1019Z" fill="black"/>
<path d="M242.614 48.6929L243.372 53.092L234.196 54.6738L239.332 84.4743L234.744 85.2652L229.607 55.4647L220.667 57.0057L219.909 52.6066L242.614 48.6929Z" fill="black"/>
<path d="M282.02 47.3024L282.032 51.7664L272.72 51.79L272.797 82.0299L268.141 82.0417L268.064 51.8018L258.992 51.8249L258.98 47.3609L282.02 47.3024Z" fill="black"/>
<path d="M293.523 65.3353C294.155 62.2309 295.526 59.5055 297.636 57.1592C299.746 54.8128 302.278 53.1237 305.231 52.0918C308.222 51.0349 311.285 50.8255 314.421 51.4635C317.525 52.0952 320.247 53.4818 322.587 55.6234C324.934 57.7336 326.619 60.281 327.645 63.2654C328.702 66.2562 328.915 69.3037 328.283 72.4081C327.645 75.5439 326.271 78.2849 324.16 80.6313C322.05 82.9776 319.487 84.6604 316.471 85.6795C313.493 86.6737 310.452 86.8549 307.348 86.2233C304.212 85.5852 301.468 84.2267 299.115 82.1479C296.762 80.069 295.07 77.5531 294.038 74.6C293.044 71.622 292.872 68.5337 293.523 65.3353ZM298.217 66.3394C297.745 68.6599 297.872 70.9227 298.599 73.1279C299.326 75.3331 300.544 77.2136 302.252 78.7695C303.991 80.3317 306.021 81.3488 308.342 81.821C310.662 82.2932 312.893 82.1594 315.036 81.4198C317.216 80.6551 319.056 79.3967 320.556 77.6445C322.093 75.8673 323.101 73.8028 323.579 71.451C324.058 69.0992 323.937 66.805 323.216 64.5685C322.496 62.3319 321.281 60.4357 319.573 58.8799C317.865 57.3241 315.851 56.3101 313.531 55.8379C311.21 55.3657 308.957 55.5277 306.77 56.3236C304.59 57.0883 302.731 58.3592 301.194 60.1364C299.688 61.9199 298.696 63.9876 298.217 66.3394Z" fill="black"/>
<path d="M354.75 101.728L352.437 86.7117C352.19 86.638 351.832 86.4981 351.364 86.2921L346.662 84.2251L341.523 95.9136L337.261 94.0398L351.227 62.2701L359.708 65.9983C361.876 66.9513 363.642 68.1821 365.006 69.6907C366.37 71.1993 367.207 72.913 367.517 74.832C367.84 76.7217 367.544 78.7065 366.63 80.7864C365.767 82.7491 364.536 84.3575 362.936 85.6117C361.365 86.8787 359.5 87.5442 357.339 87.6082L359.715 103.911L354.75 101.728ZM353.091 82.1229C355.376 83.1274 357.281 83.2481 358.805 82.4848C360.358 81.7345 361.476 80.583 362.159 79.0305C362.571 78.093 362.757 77.0737 362.717 75.9724C362.706 74.884 362.36 73.8408 361.68 72.8428C361.043 71.8284 360.021 71.0121 358.615 70.394L353.693 68.2304L348.478 80.0946L353.091 82.1229Z" fill="black"/>
<path d="M392.428 83.341L374.022 112.762L370.075 110.293L388.48 80.8716L392.428 83.341Z" fill="black"/>
<path d="M409.288 128.971L399.16 120.284L390.417 124.801L386.919 121.801L421.963 104.24L422.182 104.428L410.164 141.738L406.084 138.238L409.288 128.971ZM410.711 124.88L415.208 112.042L403.06 118.317L410.711 124.88Z" fill="black"/>
<path d="M200.517 170.42H191.753L189.121 177H187.749L196.149 156.252H196.261L204.661 177H203.121L200.517 170.42ZM200.013 169.132L196.177 159.36L192.257 169.132H200.013ZM227.623 157.12V177.476H227.567L212.251 160.228L212.279 177H210.935V156.7H211.019L226.335 174.088L226.307 157.12H227.623ZM252.326 157.12V177.476H252.27L236.954 160.228L236.982 177H235.638V156.7H235.722L251.038 174.088L251.01 157.12H252.326ZM259.081 167.088C259.081 165.259 259.539 163.569 260.453 162.02C261.368 160.452 262.6 159.211 264.149 158.296C265.699 157.363 267.388 156.896 269.217 156.896C271.047 156.896 272.745 157.363 274.313 158.296C275.881 159.211 277.123 160.452 278.037 162.02C278.952 163.569 279.409 165.259 279.409 167.088C279.409 168.917 278.952 170.616 278.037 172.184C277.123 173.733 275.881 174.965 274.313 175.88C272.745 176.776 271.047 177.224 269.217 177.224C267.369 177.224 265.671 176.785 264.121 175.908C262.572 175.031 261.34 173.817 260.425 172.268C259.529 170.719 259.081 168.992 259.081 167.088ZM260.481 167.116C260.481 168.703 260.873 170.168 261.657 171.512C262.441 172.856 263.496 173.929 264.821 174.732C266.147 175.516 267.603 175.908 269.189 175.908C270.795 175.908 272.269 175.516 273.613 174.732C274.976 173.948 276.049 172.884 276.833 171.54C277.617 170.177 278.009 168.693 278.009 167.088C278.009 165.483 277.608 164.008 276.805 162.664C276.021 161.301 274.957 160.219 273.613 159.416C272.269 158.613 270.804 158.212 269.217 158.212C267.612 158.212 266.137 158.623 264.793 159.444C263.449 160.247 262.395 161.329 261.629 162.692C260.864 164.055 260.481 165.529 260.481 167.116ZM298.924 158.716V177H297.552V160.032H294.836V158.716H298.924ZM311.06 159.136C312.199 159.136 313.225 159.388 314.14 159.892C315.073 160.377 315.801 161.068 316.324 161.964C316.865 162.86 317.136 163.896 317.136 165.072C317.136 166.789 316.688 168.376 315.792 169.832C314.915 171.269 313.841 172.539 312.572 173.64C311.321 174.741 309.763 175.945 307.896 177.252L306.972 176.188C308.876 175.068 310.472 173.911 311.76 172.716C313.067 171.503 314.019 170.364 314.616 169.3C314.112 169.785 313.543 170.149 312.908 170.392C312.273 170.616 311.527 170.728 310.668 170.728C309.679 170.728 308.745 170.476 307.868 169.972C307.009 169.449 306.319 168.749 305.796 167.872C305.292 166.995 305.04 166.033 305.04 164.988C305.04 163.887 305.311 162.888 305.852 161.992C306.412 161.096 307.149 160.396 308.064 159.892C308.979 159.388 309.977 159.136 311.06 159.136ZM311.116 169.524C312.516 169.524 313.636 169.141 314.476 168.376C315.335 167.592 315.764 166.528 315.764 165.184V164.764C315.727 163.924 315.493 163.177 315.064 162.524C314.653 161.852 314.093 161.329 313.384 160.956C312.693 160.583 311.937 160.396 311.116 160.396C310.257 160.396 309.473 160.601 308.764 161.012C308.055 161.404 307.485 161.955 307.056 162.664C306.645 163.355 306.44 164.129 306.44 164.988C306.44 165.847 306.645 166.621 307.056 167.312C307.485 168.003 308.055 168.544 308.764 168.936C309.473 169.328 310.257 169.524 311.116 169.524ZM321.428 171.4C321.428 170.093 321.802 168.964 322.548 168.012C323.314 167.041 324.256 166.379 325.376 166.024C324.667 165.725 324.098 165.277 323.668 164.68C323.239 164.083 323.024 163.401 323.024 162.636C323.024 161.441 323.426 160.452 324.228 159.668C325.05 158.884 326.104 158.492 327.392 158.492C328.251 158.492 329.007 158.679 329.66 159.052C330.332 159.407 330.846 159.901 331.2 160.536C331.574 161.152 331.76 161.843 331.76 162.608C331.76 163.392 331.555 164.083 331.144 164.68C330.734 165.259 330.174 165.707 329.464 166.024C330.622 166.379 331.583 167.041 332.348 168.012C333.132 168.964 333.524 170.093 333.524 171.4C333.524 172.445 333.244 173.416 332.684 174.312C332.143 175.189 331.406 175.899 330.472 176.44C329.539 176.963 328.522 177.224 327.42 177.224C326.319 177.224 325.311 176.963 324.396 176.44C323.482 175.899 322.754 175.189 322.212 174.312C321.69 173.416 321.428 172.445 321.428 171.4ZM324.34 162.776C324.34 163.56 324.639 164.223 325.236 164.764C325.852 165.287 326.59 165.548 327.448 165.548C328.288 165.548 328.998 165.287 329.576 164.764C330.155 164.223 330.444 163.56 330.444 162.776C330.444 161.843 330.155 161.087 329.576 160.508C329.016 159.929 328.307 159.64 327.448 159.64C326.571 159.64 325.834 159.939 325.236 160.536C324.639 161.115 324.34 161.861 324.34 162.776ZM322.8 171.344C322.8 172.184 323.006 172.968 323.416 173.696C323.827 174.405 324.378 174.975 325.068 175.404C325.778 175.833 326.552 176.048 327.392 176.048C328.251 176.048 329.044 175.833 329.772 175.404C330.5 174.975 331.079 174.405 331.508 173.696C331.938 172.968 332.152 172.184 332.152 171.344C332.152 170.504 331.938 169.729 331.508 169.02C331.098 168.311 330.528 167.751 329.8 167.34C329.091 166.911 328.307 166.696 327.448 166.696C326.608 166.696 325.834 166.911 325.124 167.34C324.415 167.751 323.846 168.311 323.416 169.02C323.006 169.729 322.8 170.504 322.8 171.344ZM345.023 177.14C343.455 177.14 342.083 176.729 340.907 175.908C339.75 175.087 338.863 173.967 338.247 172.548C337.65 171.129 337.351 169.552 337.351 167.816C337.351 166.024 337.65 164.428 338.247 163.028C338.844 161.628 339.722 160.536 340.879 159.752C342.036 158.949 343.418 158.548 345.023 158.548C346.591 158.548 347.954 158.959 349.111 159.78C350.268 160.583 351.146 161.693 351.743 163.112C352.359 164.531 352.667 166.099 352.667 167.816C352.667 169.571 352.359 171.157 351.743 172.576C351.146 173.995 350.268 175.115 349.111 175.936C347.954 176.739 346.591 177.14 345.023 177.14ZM344.995 175.824C346.227 175.824 347.31 175.507 348.243 174.872C349.195 174.219 349.932 173.285 350.455 172.072C350.996 170.859 351.267 169.44 351.267 167.816C351.267 166.211 350.996 164.811 350.455 163.616C349.932 162.403 349.195 161.479 348.243 160.844C347.31 160.191 346.227 159.864 344.995 159.864C343.782 159.864 342.699 160.191 341.747 160.844C340.814 161.479 340.076 162.403 339.535 163.616C339.012 164.829 338.751 166.239 338.751 167.844C338.751 169.449 339.012 170.859 339.535 172.072C340.076 173.285 340.814 174.219 341.747 174.872C342.699 175.507 343.782 175.824 344.995 175.824Z" fill="black"/>
</svg>
